<svg aria-hidden="true" style="position: absolute; width: 0; height: 0; overflow: hidden;" version="1.1" xmlns="http://www.w3.org/2000/svg" xmlns:xlink="http://www.w3.org/1999/xlink">
<defs>
<symbol id="icon-Clouds" viewBox="0 0 46 32">
<path fill="#c6c6c6" style="fill: var(--color1, #c6c6c6)" opacity="0.025" d="M24.187 4.629c-0.147-0.545-0.645-0.946-1.236-0.946-0.707 0-1.281 0.573-1.281 1.28 0 0.005 0 0.010 0 0.015-0.595 0.071-1.043 0.38-1.043 0.75 0 0.217 0.155 0.414 0.403 0.552-0.015 0.052-0.024 0.106-0.024 0.161 0 0.394 0.41 0.714 0.916 0.714 0.323 0 0.607-0.13 0.77-0.328 0.272 0.204 0.631 0.328 1.024 0.328 0.851 0 1.541-0.58 1.541-1.295 0-0.577-0.449-1.066-1.071-1.233z"></path>
<path fill="#c6c6c6" style="fill: var(--color1, #c6c6c6)" opacity="0.025" d="M4.006 7.192c-0.261-0.967-1.144-1.678-2.193-1.678-1.255 0-2.272 1.017-2.272 2.272 0 0.009 0.001 0.018 0.001 0.027-1.055 0.126-1.85 0.673-1.85 1.33 0 0.385 0.275 0.733 0.715 0.981-0.027 0.092-0.042 0.188-0.042 0.287 0 0.7 0.727 1.267 1.625 1.267 0.573 0 1.077-0.232 1.366-0.581 0.483 0.361 1.119 0.581 1.817 0.581 1.51 0 2.734-1.028 2.734-2.297-0-1.024-0.798-1.892-1.9-2.188z"></path>
<path fill="#c6c6c6" style="fill: var(--color1, #c6c6c6)" opacity="0.05" d="M27.594 9.038c-0.183-0.68-0.801-1.18-1.536-1.18-0.879 0-1.591 0.715-1.591 1.597 0 0.007 0 0.013 0 0.019-0.739 0.089-1.296 0.473-1.296 0.935 0 0.271 0.192 0.516 0.5 0.689-0.019 0.065-0.030 0.132-0.030 0.201 0 0.492 0.509 0.891 1.138 0.891 0.401 0 0.754-0.163 0.956-0.408 0.338 0.254 0.784 0.408 1.272 0.408 1.057 0 1.915-0.723 1.915-1.615-0-0.72-0.559-1.33-1.331-1.538z"></path>
<path fill="#c6c6c6" style="fill: var(--color1, #c6c6c6)" opacity="0.075" d="M2.551 14.168c-0.233-0.861-1.020-1.495-1.955-1.495-1.118 0-2.025 0.906-2.025 2.024 0 0.008 0.001 0.016 0.001 0.024-0.941 0.113-1.649 0.6-1.649 1.185 0 0.343 0.245 0.653 0.637 0.874-0.024 0.082-0.038 0.167-0.038 0.255 0 0.623 0.648 1.129 1.448 1.129 0.511 0 0.96-0.206 1.217-0.518 0.431 0.322 0.998 0.518 1.619 0.518 1.346 0 2.437-0.916 2.437-2.047 0-0.913-0.711-1.685-1.694-1.949z"></path>
<path fill="#c6c6c6" style="fill: var(--color1, #c6c6c6)" opacity="0.075" d="M17.097 21.725c-0.233-0.861-1.020-1.495-1.955-1.495-1.118 0-2.025 0.906-2.025 2.024 0 0.008 0.001 0.016 0.001 0.024-0.941 0.113-1.649 0.6-1.649 1.185 0 0.343 0.245 0.653 0.637 0.874-0.024 0.082-0.038 0.167-0.038 0.255 0 0.623 0.648 1.129 1.448 1.129 0.511 0 0.96-0.206 1.217-0.518 0.431 0.322 0.998 0.518 1.619 0.518 1.346 0 2.437-0.916 2.437-2.047 0-0.913-0.711-1.685-1.694-1.949z"></path>
<path fill="#c6c6c6" style="fill: var(--color1, #c6c6c6)" opacity="0.075" d="M31.542 4.17c-0.233-0.861-1.020-1.495-1.955-1.495-1.118 0-2.025 0.906-2.025 2.024 0 0.008 0.001 0.016 0.001 0.024-0.941 0.112-1.649 0.6-1.649 1.185 0 0.343 0.245 0.653 0.637 0.874-0.024 0.082-0.038 0.167-0.038 0.255 0 0.623 0.648 1.129 1.448 1.129 0.511 0 0.96-0.206 1.217-0.518 0.43 0.322 0.998 0.518 1.619 0.518 1.346 0 2.437-0.916 2.437-2.047 0-0.913-0.711-1.685-1.694-1.949z"></path>
<path fill="#c6c6c6" style="fill: var(--color1, #c6c6c6)" opacity="0.025" d="M12.123 26.717c-0.306-1.137-1.342-1.973-2.573-1.973-1.472 0-2.665 1.196-2.665 2.671 0 0.011 0.001 0.022 0.001 0.032-1.238 0.148-2.17 0.792-2.17 1.564 0 0.453 0.322 0.862 0.838 1.153-0.032 0.108-0.050 0.221-0.050 0.337 0 0.823 0.853 1.49 1.907 1.49 0.672 0 1.263-0.272 1.602-0.683 0.567 0.425 1.313 0.683 2.132 0.683 1.772 0 3.208-1.209 3.208-2.701 0-1.204-0.936-2.224-2.23-2.573z"></path>
<path fill="#c6c6c6" style="fill: var(--color1, #c6c6c6)" opacity="0.05" d="M6.765 23.242c-0.14-0.521-0.614-0.905-1.177-0.905-0.673 0-1.219 0.549-1.219 1.225 0 0.005 0 0.010 0 0.015-0.566 0.068-0.993 0.363-0.993 0.718 0 0.208 0.147 0.396 0.384 0.529-0.015 0.050-0.023 0.101-0.023 0.155 0 0.377 0.39 0.683 0.872 0.683 0.308 0 0.578-0.125 0.733-0.313 0.259 0.195 0.601 0.313 0.975 0.313 0.81 0 1.467-0.555 1.467-1.239 0-0.552-0.428-1.020-1.020-1.18z"></path>
<path fill="#c6c6c6" style="fill: var(--color1, #c6c6c6)" opacity="0.045" d="M28.807 25.412c-0.18-0.674-0.791-1.17-1.516-1.17-0.867 0-1.57 0.709-1.57 1.583 0 0.007 0 0.013 0 0.019-0.729 0.088-1.279 0.469-1.279 0.927 0 0.269 0.19 0.511 0.494 0.683-0.019 0.064-0.029 0.131-0.029 0.2 0 0.488 0.503 0.883 1.123 0.883 0.396 0 0.744-0.161 0.944-0.405 0.334 0.252 0.774 0.405 1.256 0.405 1.044 0 1.89-0.717 1.89-1.601 0-0.714-0.552-1.319-1.314-1.525z"></path>
<path fill="#c6c6c6" style="fill: var(--color1, #c6c6c6)" opacity="0.05" d="M44.429 16.949c-0.221-0.826-0.967-1.434-1.855-1.434-1.061 0-1.921 0.869-1.921 1.941 0 0.008 0.001 0.016 0.001 0.023-0.893 0.108-1.565 0.576-1.565 1.137 0 0.329 0.232 0.627 0.605 0.838-0.023 0.079-0.036 0.161-0.036 0.245 0 0.598 0.615 1.083 1.375 1.083 0.484 0 0.91-0.198 1.155-0.496 0.409 0.309 0.947 0.496 1.536 0.496 1.277 0 2.313-0.879 2.313-1.963 0-0.875-0.675-1.617-1.608-1.87z"></path>
<path fill="#fad34f" style="fill: var(--color2, #fad34f)" opacity="0.1" d="M26.784 1.455c0 0.803-0.651 1.455-1.455 1.455s-1.455-0.651-1.455-1.455c0-0.803 0.651-1.455 1.455-1.455s1.455 0.651 1.455 1.455z"></path>
</symbol>
<symbol id="icon-green_cartoon" viewBox="0 0 26 32">
<path fill="#46ebb0" style="fill: var(--color3, #46ebb0)" d="M25.885 19.057c0 7.148-5.795 12.943-12.943 12.943s-12.943-5.795-12.943-12.943v-19.057h25.885v19.057z"></path>
<path fill="#fff" style="fill: var(--color4, #fff)" d="M12.54 22.779c0-0.927 0.752 0 1.679 0s1.679-0.927 1.679 0c0 0.927-0.752 1.679-1.679 1.679s-1.679-0.752-1.679-1.679z"></path>
<path fill="#fff" style="fill: var(--color4, #fff)" d="M7.253 22.779c0-0.927 0.752 0 1.679 0s1.679-0.927 1.679 0c0 0.927-0.752 1.679-1.679 1.679s-1.679-0.752-1.679-1.679z"></path>
<path fill="#fff" style="fill: var(--color4, #fff)" d="M8.936 19.222c0-1.705 1.382-3.086 3.086-3.086s3.086 1.382 3.086 3.086c0 1.704-1.382-0.119-3.086-0.119s-3.086 1.823-3.086 0.119z"></path>
</symbol>
<symbol id="icon-red_cartoon" viewBox="0 0 32 32">
<path fill="#f472b7" style="fill: var(--color5, #f472b7)" d="M23.504 24.262c-4.689 4.276-11.859 4.048-16.015-0.509s-3.724-11.718 0.965-15.994 11.859-4.048 16.015 0.509c4.156 4.557 3.724 11.718-0.965 15.994z"></path>
<path fill="#fff" style="fill: var(--color4, #fff)" d="M11.205 13.958c0.281 0.308 0.393-0.054 0.71-0.343s0.719-0.395 0.438-0.703-0.766-0.324-1.083-0.034c-0.317 0.289-0.347 0.773-0.065 1.081z"></path>
<path fill="#fff" style="fill: var(--color4, #fff)" d="M9.011 15.958c0.281 0.308 0.393-0.054 0.71-0.343s0.719-0.395 0.438-0.703c-0.281-0.309-0.766-0.323-1.083-0.034s-0.347 0.773-0.065 1.081z"></path>
<path fill="#fff" style="fill: var(--color4, #fff)" d="M10.863 16.893c0.549 0.602 1.496 0.632 2.115 0.067s0.676-1.51 0.127-2.112c-0.549-0.602-0.464 0.5-1.083 1.064s-1.708 0.379-1.159 0.981z"></path>
</symbol>
<symbol id="icon-small_cartoon" viewBox="0 0 32 32">
<path fill="#fad34f" style="fill: var(--color2, #fad34f)" d="M22.467 25.045c5.228-3.687 6.561-10.795 2.977-15.876s-10.726-6.212-15.954-2.525-6.561 10.795-2.977 15.876c3.583 5.081 10.726 6.212 15.954 2.525z"></path>
<path fill="#fff" style="fill: var(--color4, #fff)" d="M14.995 10.698c0.242 0.343-0.139 0.375-0.492 0.624s-0.545 0.622-0.788 0.278c-0.243-0.344-0.152-0.824 0.201-1.073s0.836-0.173 1.079 0.171z"></path>
<path fill="#fff" style="fill: var(--color4, #fff)" d="M17.44 8.974c0.242 0.343-0.139 0.375-0.492 0.624s-0.545 0.622-0.788 0.278c-0.243-0.344-0.152-0.824 0.201-1.073s0.836-0.173 1.079 0.171z"></path>
<path fill="#fff" style="fill: var(--color4, #fff)" d="M17.959 10.999c0.473 0.671 0.297 1.61-0.393 2.097s-1.634 0.338-2.107-0.333c-0.473-0.671 0.593-0.348 1.283-0.835s0.744-1.599 1.217-0.928z"></path>
</symbol>
<symbol id="icon-soc1" viewBox="0 0 30 32">
<path fill="#696969" style="fill: var(--color6, #696969)" d="M6.584 30.255h-6.098v-19.761h6.098v19.761zM3.532 7.798c-1.95 0-3.532-1.625-3.532-3.588s1.582-3.554 3.532-3.554c1.95 0 3.532 1.592 3.532 3.554s-1.582 3.588-3.532 3.588zM29.408 30.255h-6.085v-9.62c0-2.293-0.046-5.233-3.171-5.233-3.171 0-3.656 2.491-3.656 5.067v9.785h-6.092v-19.761h5.849v2.696h0.085c0.814-1.553 2.803-3.191 5.77-3.191 6.171 0 7.306 4.090 7.306 9.402v10.855h-0.006z"></path>
</symbol>
<symbol id="icon-soc2" viewBox="0 0 39 32">
<path fill="#696969" style="fill: var(--color6, #696969)" d="M34.377 7.987c0.023 0.322 0.023 0.643 0.023 0.965 0 9.813-7.582 21.119-21.441 21.119-4.27 0-8.236-1.218-11.572-3.332 0.607 0.069 1.19 0.092 1.82 0.092 3.523 0 6.766-1.172 9.355-3.171-3.313-0.069-6.089-2.206-7.046-5.148 0.467 0.069 0.933 0.115 1.423 0.115 0.677 0 1.353-0.092 1.983-0.253-3.453-0.689-6.043-3.677-6.043-7.285v-0.092c1.003 0.552 2.17 0.896 3.406 0.942-2.030-1.333-3.36-3.608-3.36-6.182 0-1.379 0.373-2.643 1.026-3.746 3.71 4.504 9.286 7.446 15.538 7.767-0.117-0.552-0.187-1.126-0.187-1.7 0-4.091 3.36-7.423 7.536-7.423 2.17 0 4.129 0.896 5.506 2.344 1.703-0.322 3.336-0.942 4.783-1.792-0.56 1.724-1.75 3.171-3.313 4.090 1.517-0.161 2.986-0.574 4.339-1.149-1.026 1.471-2.309 2.78-3.779 3.838z"></path>
</symbol>
<symbol id="icon-soc3" viewBox="0 0 17 32">
<path fill="#696969" style="fill: var(--color6, #696969)" d="M5.387 30.28v-13.543h-4.575v-5.382h4.575v-4.24c0-4.607 2.839-7.115 6.984-7.115 1.986 0 3.692 0.148 4.187 0.213v4.814h-2.875c-2.255 0-2.69 1.065-2.69 2.62v3.708h5.087l-0.698 5.382h-4.39v13.543z"></path>
</symbol>
<symbol id="icon-soc4" viewBox="0 0 26 32">
<path fill="#696969" style="fill: var(--color6, #696969)" d="M14.059 0.574c-6.533 0-12.99 4.056-12.99 10.621 0 4.175 2.522 6.547 4.050 6.547 0.63 0 0.993-1.637 0.993-2.099 0-0.552-1.509-1.726-1.509-4.021 0-4.768 3.897-8.148 8.94-8.148 4.336 0 7.545 2.295 7.545 6.512 0 3.149-1.356 9.056-5.75 9.056-1.585 0-2.942-1.067-2.942-2.597 0-2.242 1.681-4.412 1.681-6.725 0-3.926-5.979-3.214-5.979 1.53 0 0.996 0.134 2.099 0.611 3.007-0.879 3.523-2.674 8.771-2.674 12.4 0 1.121 0.172 2.224 0.287 3.345 0.216 0.225 0.108 0.202 0.439 0.089 3.209-4.092 3.095-4.893 4.546-10.248 0.783 1.388 2.808 2.135 4.413 2.135 6.762 0 9.8-6.138 9.8-11.671 0-5.889-5.463-9.732-11.461-9.732z"></path>
</symbol>
<symbol id="icon-yellow_cartoon" viewBox="0 0 32 32">
<path fill="#fad34f" style="fill: var(--color2, #fad34f)" d="M16.052 31.983c8.837 0 16-7.163 16-16s-7.163-16-16-16c-8.837 0-16 7.163-16 16s7.163 16 16 16z"></path>
<path fill="#fff" style="fill: var(--color4, #fff)" d="M20.363 20.954c0 1.146-0.929 0-2.076 0-1.146 0-2.076 1.146-2.076 0s0.929-2.076 2.076-2.076c1.147 0 2.076 0.929 2.076 2.076z"></path>
<path fill="#fff" style="fill: var(--color4, #fff)" d="M26.898 20.954c0 1.146-0.929 0-2.076 0-1.146 0-2.076 1.146-2.076 0s0.929-2.076 2.076-2.076c1.147 0 2.076 0.929 2.076 2.076z"></path>
<path fill="#fff" style="fill: var(--color4, #fff)" d="M24.818 25.352c0 2.108-1.709 3.815-3.815 3.815s-3.815-1.709-3.815-3.815c0-2.107 1.709 0.147 3.815 0.147s3.815-2.254 3.815-0.147z"></path>
</symbol>
</defs>
</svg>
